<?xml version="1.0" encoding="UTF-8" standalone="no"?>
<svg
   xmlns:dc="http://purl.org/dc/elements/1.1/"
   xmlns:cc="http://creativecommons.org/ns#"
   xmlns:rdf="http://www.w3.org/1999/02/22-rdf-syntax-ns#"
   xmlns:svg="http://www.w3.org/2000/svg"
   xmlns="http://www.w3.org/2000/svg"
   viewBox="0 0 3160 1296"
   height="1296"
   width="3160"
   xml:space="preserve"
   id="svg2"
   version="1.1"><metadata
     id="metadata8"><rdf:RDF><cc:Work
         rdf:about=""><dc:format>image/svg+xml</dc:format><dc:type
           rdf:resource="http://purl.org/dc/dcmitype/StillImage" /></cc:Work></rdf:RDF></metadata><defs
     id="defs6"><clipPath
       id="clipPath18"
       clipPathUnits="userSpaceOnUse"><path
         style="clip-rule:evenodd"
         id="path16"
         d="M 0,0 H 2370 V 971.78979 H 0 Z" /></clipPath><clipPath
       id="clipPath30"
       clipPathUnits="userSpaceOnUse"><path
         style="clip-rule:evenodd"
         id="path28"
         d="M 5.9848485,0 H 2369.9999 V 969.54541 H 5.9848485 Z" /></clipPath></defs><g
     transform="matrix(1.3333333,0,0,1.3333333,0,3.24e-5)"
     id="g10"><g
       id="g12"><g
         clip-path="url(#clipPath18)"
         id="g14"><g
           transform="matrix(0.74810606,0,0,0.74810606,0,-971.78979)"
           id="g20"><path
             id="path22"
             style="fill:#ffffff;fill-opacity:1;fill-rule:nonzero;stroke:none"
             d="M 0,0 H 3168 V 2603 H 0 Z" /></g></g></g><g
       id="g24"><g
         clip-path="url(#clipPath30)"
         id="g26"><g
           transform="matrix(8.4979134,0,0,8.4979134,119.73328,60.171867)"
           id="g32"><path
             id="path34"
             style="fill:#ffffff;fill-opacity:1;fill-rule:nonzero;stroke:none"
             d="M 98.800003,56.700001 C 97.5,54.799999 96,52 94.600006,49.200001 c -1.400001,-2.700001 -2.5,-7.299999 -2.5,-10.299999 L 92,37.900002 C 90.800003,19.9 75.099998,5.6999998 56.5,7.0999999 45.5,7.9000001 35.900002,14.2 30.5,23.200001 L 36.900002,25 l 11.5,12.799999 7.2,8.399998 h -29 l -0.399999,-0.799999 c 0.2,1 0.399999,2 0.6,2.900001 L 54.300003,48.5 34.700001,58.799999 32.5,60.099998 c 0.400002,0.599999 0.900002,1.200001 1.400002,1.700001 v 14.899998 c 0,1.400001 0.900001,2.699997 2.2,3.099998 l 38.200001,13 c 1.400002,0.5 2.900002,-0.599998 2.900002,-2.099998 v -8 h 9.099998 c 3.199997,0 5.800003,-2.599999 5.800003,-5.800003 V 61.099998 h 4.300003 c 2.299988,0 3.699991,-2.5 2.399994,-4.399997 z M 58.5,46.200001 48.700001,34.800003 67.599998,28.500004 63.199997,36.900002 Z m 6.900002,-9 4.400001,-8.4 L 79.200005,37.5 Z M 23.9,46.200001 0.69999999,28.5 14,28.200001 Z M 26.1,45.400002 16.6,28.200001 10.700001,17.5 30.5,23.1 c -2.9,4.800002 -4.6,10.300002 -4.799999,16.100001 0,2.099998 0.1,4.200001 0.399999,6.200001 z m 0.600001,2.899997 c 1.1,4.299999 3.1,8.299999 5.700001,11.799999 L 10.3,72.900002 l 16.400001,-24.5 z" /></g><g
           transform="matrix(12.469111,0,0,12.469111,1007.1992,259.58612)"
           id="g36"><path
             id="path38"
             style="fill:#ffffff;fill-opacity:1;fill-rule:nonzero;stroke:none"
             d="m 1.2999999,10.3 c 0,-0.2 0.1000001,-0.3 0.3,-0.3 h 0.72 c 0.2000001,0 0.3,0.1 0.3,0.3 v 13.400001 c 0,0.200001 -0.1,0.299999 -0.3,0.299999 h -0.72 c -0.2,0 -0.3,-0.1 -0.3,-0.299999 v -13.4 z M 16.639999,10 c 0.200001,0 0.3,0.1 0.3,0.3 v 13.400001 c 0,0.200001 -0.100001,0.299999 -0.3,0.299999 h -0.72 c -0.2,0 -0.3,-0.1 -0.3,-0.299999 v -12.12 l -3.8,12.12 c -0.06,0.200001 -0.2,0.299999 -0.38,0.299999 h -0.720001 c -0.18,0 -0.319999,-0.1 -0.38,-0.299999 l -3.7999999,-12.12 v 12.12 c 0,0.200001 -0.1,0.299999 -0.3000002,0.299999 H 5.5199981 C 5.3199983,24 5.2199979,23.9 5.2199979,23.700001 v -13.4 c 0,-0.2 0.1,-0.3 0.3000002,-0.3 h 1.48 c 0.1999998,0 0.3400001,0.1 0.4000001,0.3 l 3.6799998,11.58 3.68,-11.58 c 0.06,-0.2 0.2,-0.3 0.4,-0.3 h 1.48 z m 12.24,13.68 c 0.08,0.22 -0.04,0.32 -0.24,0.32 H 27.9 c -0.200001,0 -0.280001,-0.1 -0.360001,-0.32 L 26.66,20.74 H 21.1 l -0.879999,2.94 c -0.06,0.22 -0.16,0.32 -0.36,0.32 h -0.74 c -0.200001,0 -0.299999,-0.1 -0.24,-0.32 L 23.02,10.320001 c 0.06,-0.2 0.200001,-0.32 0.38,-0.32 h 0.94 c 0.18,0 0.32,0.12 0.379999,0.32 z m -7.42,-4.1 h 4.84 l -2.42,-7.98 z m 18.260002,-3.020001 c 0.180001,0 0.32,0.120001 0.32,0.3 v 3.08 c 0,2.739999 -1.439999,4.159999 -4.020001,4.159999 h -1.380001 c -2.599998,0 -4.02,-1.42 -4.02,-4.159999 v -5.88 c 0,-2.74 1.420002,-4.1600003 4.02,-4.1600003 H 36.02 c 2.48,0 3.880002,1.3000003 4,3.9000003 0.02,0.220001 -0.119998,0.32 -0.299999,0.32 H 39.02 c -0.18,0 -0.299999,-0.1 -0.319999,-0.32 -0.08,-1.88 -0.880001,-2.68 -2.680001,-2.68 h -1.380001 c -1.919998,0 -2.7,0.88 -2.7,2.940001 v 5.879999 c 0,2.059999 0.779998,2.94 2.7,2.94 H 36.02 c 1.900002,0 2.700001,-0.879999 2.700001,-2.94 v -2.22 h -2.099998 c -0.180001,0 -0.299999,-0.120001 -0.299999,-0.299999 v -0.559999 c 0,-0.180001 0.119998,-0.3 0.299999,-0.3 h 3.099998 z M 42.439999,10.3 c 0,-0.2 0.1,-0.3 0.299999,-0.3 h 0.720001 c 0.200001,0 0.299999,0.1 0.299999,0.3 V 23.700001 C 43.759998,23.900002 43.66,24 43.459999,24 h -0.720001 c -0.200001,0 -0.299999,-0.1 -0.299999,-0.299999 v -13.4 z M 55.200001,10 C 55.400002,10 55.5,10.1 55.5,10.3 V 23.700001 C 55.5,23.900002 55.400002,24 55.200001,24 H 53.84 c -0.16,0 -0.279999,-0.06 -0.36,-0.219999 L 47.68,11.6 V 23.700001 C 47.68,23.900002 47.580002,24 47.380001,24 H 46.66 c -0.200001,0 -0.299999,-0.1 -0.299999,-0.299999 v -13.4 c 0,-0.2 0.1,-0.3 0.299999,-0.3 h 1.36 c 0.16,0 0.279999,0.06 0.360001,0.22 l 5.799999,12.16 v -12.08 c 0,-0.2 0.1,-0.3 0.3,-0.3 h 0.720001 z m 12.240001,13.68 c 0.08,0.22 -0.04,0.32 -0.239997,0.32 h -0.739998 c -0.199997,0 -0.279999,-0.1 -0.360001,-0.32 l -0.879997,-2.94 h -5.560002 l -0.880001,2.94 c -0.06,0.22 -0.159999,0.32 -0.36,0.32 h -0.740002 c -0.200001,0 -0.299999,-0.1 -0.240002,-0.32 l 4.14,-13.359999 c 0.06,-0.2 0.200001,-0.32 0.380001,-0.32 h 0.939999 c 0.18,0 0.319999,0.12 0.380001,0.32 z M 60.02,19.58 h 4.840001 L 62.440002,11.6 Z M 77.18,10 c 0.199997,0 0.300003,0.1 0.300003,0.3 v 0.62 c 0,0.2 -0.1,0.3 -0.300003,0.3 h -3.319999 v 12.480001 c 0,0.200001 -0.1,0.299999 -0.300003,0.299999 h -0.720002 c -0.199997,0 -0.300003,-0.1 -0.300003,-0.299999 v -12.48 h -3.36 c -0.199997,0 -0.300003,-0.1 -0.300003,-0.3 v -0.62 c 0,-0.2 0.1,-0.3 0.300003,-0.3 h 4.379997 3.620003 z m 2.400002,0.3 c 0,-0.2 0.1,-0.3 0.300003,-0.3 h 0.720001 c 0.199997,0 0.300003,0.1 0.300003,0.3 v 13.400001 c 0,0.200001 -0.1,0.299999 -0.300003,0.299999 h -0.720001 c -0.199997,0 -0.300003,-0.1 -0.300003,-0.299999 v -13.4 z M 88.800003,9.8999996 C 91.400002,9.8999996 92.82,11.32 92.82,14.06 v 5.879999 c 0,2.739999 -1.419998,4.159999 -4.019997,4.159999 H 87.32 c -2.599999,0 -4.019997,-1.42 -4.019997,-4.159999 v -5.88 c 0,-2.74 1.419998,-4.1600003 4.019997,-4.1600003 h 1.480003 z M 91.5,19.940001 V 14.06 C 91.5,12 90.720001,11.120001 88.800003,11.120001 H 87.32 c -1.919998,0 -2.699997,0.88 -2.699997,2.94 v 5.880001 c 0,2.06 0.779999,2.940001 2.699997,2.940001 h 1.480003 c 1.919998,0 2.699997,-0.879999 2.699997,-2.940001 z M 104.06,10 c 0.2,0 0.3,0.1 0.3,0.3 V 23.700001 C 104.36,23.900002 104.26,24 104.06,24 h -1.36 c -0.16001,0 -0.28,-0.06 -0.36,-0.219999 L 96.539993,11.6 v 12.100001 c 0,0.200001 -0.1,0.299999 -0.300003,0.299999 h -0.720001 c -0.199997,0 -0.300003,-0.1 -0.300003,-0.299999 v -13.4 c 0,-0.2 0.1,-0.3 0.300003,-0.3 h 1.360001 c 0.160003,0 0.279998,0.06 0.36,0.22 l 5.8,12.16 v -12.08 c 0,-0.2 0.1,-0.3 0.30001,-0.3 h 0.72 z" /></g><g
           transform="matrix(7.4753304,0,0,7.4753304,1017.65,509.35297)"
           id="g40"><path
             id="path42"
             style="fill:#ffffff;fill-opacity:1;fill-rule:nonzero;stroke:none"
             d="M 0.84746009,21.729 1.3218701,21.16968 c 0.15238,-0.152541 0.3049199,-0.13559 0.44051,-0.0339 0.3220301,0.271191 1.6441002,1.711901 3.5253997,1.711901 2.2372999,0 3.2202997,-1.220301 3.2202997,-2.4237 0,-1.7288 -1.9663,-2.1864 -3.7459001,-2.8305 -2.0169001,-0.762711 -3.7458,-1.677999 -3.7458,-3.7119 0,-1.694899 1.2372999,-3.5593 4.2712001,-3.5593 2.0847001,0 3.5931998,1.2542 4,1.6102 0.1355896,0.11864 0.1864405,0.271189 0.084912,0.40678 l -0.4406795,0.57627 c -0.1016903,0.13559 -0.2372904,0.16949 -0.3898296,0.0678 -0.3389798,-0.25424 -1.5592003,-1.3898 -3.2371002,-1.3898 -1.8984999,0 -2.9663,1 -2.9663,2.288 0,1.4915 1.5086,2.0169 3.4916997,2.728801 1.8136001,0.67797 4,1.5932 4,3.830499 0,1.966101 -1.8303003,3.660801 -4.5253,3.660801 -2.4746001,0 -4,-1.61 -4.38980009,-1.9998 -0.11864,-0.11864 -0.22034001,-0.22034 -0.067797,-0.372709 z M 25.80534,10.441 c 0.15254,0 0.22051,0.0678 0.22051,0.22034 v 0.84746 c 0,0.135589 -0.0678,0.220339 -0.22034,0.220339 h -4.3729 V 23.76314 c 0,0.15254 -0.0678,0.237119 -0.203391,0.237119 h -0.67797 c -0.305081,0 -0.457631,-0.186439 -0.457631,-0.474411 v -11.797 h -4.3729 c -0.15254,0 -0.23729,-0.08475 -0.23729,-0.220339 v -0.830511 c 0,-0.169489 0.08475,-0.23729 0.23729,-0.23729 h 10.084999 z m 16.753914,0 h -0.897969 c -0.16949,0 -0.237289,0.05085 -0.237289,0.22051 v 8.1524 c 0,2.830499 -2.118599,4.016901 -4.0341,4.016901 -1.864399,0 -3.949199,-1.1864 -3.949199,-4.0169 v -8.1524 c 0,-0.15254 -0.0678,-0.220339 -0.220341,-0.220339 h -0.881359 c -0.169491,0 -0.23729,0.0678 -0.23729,0.220339 v 8.338802 c 0.01679,2.7292 1.965901,5.118599 5.288002,5.118599 3.339001,0 5.3559,-2.3895 5.372902,-5.118599 v -8.338801 c 0,-0.169659 -0.0678,-0.220509 -0.203388,-0.220509 z m 11.330417,0 c 4.627098,0 6.915299,3.423901 6.915299,6.6949 0,3.4576 -2.3051,6.864201 -6.864399,6.864201 h -4.627102 c -0.152538,0 -0.220341,-0.08458 -0.220341,-0.220169 v -13.119 c 0,-0.152541 0.0678,-0.22034 0.220341,-0.22034 h 4.576302 z m 0.118599,12.2712 c 3.542198,0 5.4576,-2.7798 5.440701,-5.576401 0,-2.7797 -1.864399,-5.4066 -5.440701,-5.4066 h -3.5932 L 50.43202,22.7122 h 3.576302 -5e-5 z M 68.305107,10.441 h -0.86441 c -0.152542,0 -0.220337,0.0678 -0.220337,0.22034 v 13.119 c 0,0.13559 0.0678,0.220169 0.220337,0.220169 h 0.881363 c 0.118637,0 0.203392,-0.08458 0.203392,-0.220169 v -13.119 c 0,-0.15254 -0.08475,-0.22034 -0.220337,-0.22034 z m 13.68647,13.677641 c 3.830498,0 6.949204,-3.033699 6.949204,-6.8981 0,-3.8475 -3.118599,-6.8983 -6.949204,-6.8983 -3.847504,0 -6.966102,3.0508 -6.966102,6.8983 0,3.864401 3.118598,6.8981 6.966102,6.8981 z m 0,-1.287941 c -3.084701,0 -5.644104,-2.508499 -5.644104,-5.610199 0,-3.1017 2.559303,-5.6102 5.644104,-5.6102 3.084603,0 5.610001,2.5085 5.610001,5.6102 0,3.1017 -2.525398,5.610199 -5.610001,5.610199 z m 12.940628,-1.1017 0.474411,-0.55932 c 0.152382,-0.152541 0.304917,-0.13559 0.440514,-0.0339 0.322029,0.271191 1.644096,1.711901 3.525398,1.711901 2.237302,0 3.220302,-1.220301 3.220302,-2.4237 0,-1.7288 -1.9663,-2.1864 -3.745906,-2.8305 -2.016899,-0.762711 -3.745804,-1.677999 -3.745804,-3.7119 0,-1.694899 1.237297,-3.5593 4.271202,-3.5593 2.084698,0 3.593198,1.2542 3.999998,1.6102 0.13559,0.11864 0.18644,0.271189 0.0849,0.40678 l -0.44068,0.57627 c -0.1017,0.13559 -0.23729,0.16949 -0.38984,0.0678 -0.33898,-0.25424 -1.55919,-1.3898 -3.237094,-1.3898 -1.898499,0 -2.966301,1 -2.966301,2.288 0,1.4915 1.508598,2.0169 3.491699,2.728801 1.813596,0.67797 3.999996,1.5932 3.999996,3.830499 0,1.966101 -1.8303,3.660801 -4.525295,3.660801 -2.474602,0 -4,-1.61 -4.389801,-1.9998 -0.118637,-0.11864 -0.220337,-0.22034 -0.06779,-0.372709 l 7.6e-5,-1.22e-4 z" /></g></g></g></g></svg>