<?xml version="1.0" encoding="UTF-8" standalone="no"?>
<svg
   xmlns:dc="http://purl.org/dc/elements/1.1/"
   xmlns:cc="http://creativecommons.org/ns#"
   xmlns:rdf="http://www.w3.org/1999/02/22-rdf-syntax-ns#"
   xmlns:svg="http://www.w3.org/2000/svg"
   xmlns="http://www.w3.org/2000/svg"
   viewBox="0 0 506.53201 598.81335"
   height="598.81335"
   width="506.53201"
   xml:space="preserve"
   id="svg2"
   version="1.1"><metadata
     id="metadata8"><rdf:RDF><cc:Work
         rdf:about=""><dc:format>image/svg+xml</dc:format><dc:type
           rdf:resource="http://purl.org/dc/dcmitype/StillImage" /></cc:Work></rdf:RDF></metadata><defs
     id="defs6"><clipPath
       id="clipPath18"
       clipPathUnits="userSpaceOnUse"><path
         id="path16"
         d="M 0,449.11 H 379.899 V 0 H 0 Z" /></clipPath></defs><g
     transform="matrix(1.3333333,0,0,-1.3333333,0,598.81333)"
     id="g10"><g
       id="g12"><g
         clip-path="url(#clipPath18)"
         id="g14"><g
           transform="translate(223.7817,298.7758)"
           id="g20"><path
             id="path22"
             style="fill:#ffffff;fill-opacity:1;fill-rule:nonzero;stroke:none"
             d="m 0,0 c -0.145,-0.69 -0.236,-1.417 -0.272,-2.144 0,0.019 0,0.037 -0.019,0.055 0,0.055 0,0.091 0.019,0.146 0,0.254 0.036,0.489 0.054,0.725 0.018,0.164 0.037,0.327 0.073,0.491 0.036,0.254 0.073,0.491 0.127,0.727 z" /></g><g
           transform="translate(224,299.7016)"
           id="g24"><path
             id="path26"
             style="fill:#ffffff;fill-opacity:1;fill-rule:nonzero;stroke:none"
             d="m 0,0 c -0.091,-0.309 -0.164,-0.617 -0.218,-0.926 h -0.018 c 0,0.018 0,0.035 0.018,0.054 C -0.164,-0.581 -0.091,-0.291 0,0" /></g><g
           transform="translate(225.0532,302.4799)"
           id="g28"><path
             id="path30"
             style="fill:#ffffff;fill-opacity:1;fill-rule:nonzero;stroke:none"
             d="m 0,0 c -0.018,-0.055 -0.037,-0.091 -0.055,-0.127 v 0.036 C -0.037,-0.055 -0.018,-0.036 0,0" /></g><g
           transform="translate(228.4311,306.8022)"
           id="g32"><path
             id="path34"
             style="fill:#ffffff;fill-opacity:1;fill-rule:nonzero;stroke:none"
             d="m 0,0 c -0.236,-0.218 -0.472,-0.436 -0.69,-0.654 0.09,0.128 0.218,0.254 0.363,0.363 C -0.218,-0.2 -0.109,-0.091 0,0" /></g><g
           transform="translate(229.1572,307.4018)"
           id="g36"><path
             id="path38"
             style="fill:#ffffff;fill-opacity:1;fill-rule:nonzero;stroke:none"
             d="m 0,0 c -0.254,-0.2 -0.49,-0.4 -0.726,-0.6 0.073,0.073 0.145,0.127 0.218,0.2 0.163,0.145 0.327,0.273 0.508,0.4" /></g><g
           transform="translate(223.7817,298.7758)"
           id="g40"><path
             id="path42"
             style="fill:#ffffff;fill-opacity:1;fill-rule:nonzero;stroke:none"
             d="m 0,0 c -0.145,-0.69 -0.236,-1.417 -0.272,-2.144 0,0.019 0,0.037 -0.019,0.055 0,0.055 0,0.091 0.019,0.146 0,0.254 0.036,0.489 0.054,0.725 0.018,0.164 0.037,0.327 0.073,0.491 0.036,0.254 0.073,0.491 0.127,0.727 z" /></g><g
           transform="translate(224,299.7016)"
           id="g44"><path
             id="path46"
             style="fill:#ffffff;fill-opacity:1;fill-rule:nonzero;stroke:none"
             d="m 0,0 c -0.091,-0.309 -0.164,-0.617 -0.218,-0.926 h -0.018 c 0,0.018 0,0.035 0.018,0.054 C -0.164,-0.581 -0.091,-0.291 0,0" /></g><g
           transform="translate(225.0532,302.4799)"
           id="g48"><path
             id="path50"
             style="fill:#ffffff;fill-opacity:1;fill-rule:nonzero;stroke:none"
             d="m 0,0 c -0.018,-0.055 -0.037,-0.091 -0.055,-0.127 v 0.036 C -0.037,-0.055 -0.018,-0.036 0,0" /></g><g
           transform="translate(228.4311,306.8022)"
           id="g52"><path
             id="path54"
             style="fill:#ffffff;fill-opacity:1;fill-rule:nonzero;stroke:none"
             d="m 0,0 c -0.236,-0.218 -0.472,-0.436 -0.69,-0.654 0.09,0.128 0.218,0.254 0.363,0.363 C -0.218,-0.2 -0.109,-0.091 0,0" /></g><g
           transform="translate(229.1572,307.4018)"
           id="g56"><path
             id="path58"
             style="fill:#ffffff;fill-opacity:1;fill-rule:nonzero;stroke:none"
             d="m 0,0 c -0.254,-0.2 -0.49,-0.4 -0.726,-0.6 0.073,0.073 0.145,0.127 0.218,0.2 0.163,0.145 0.327,0.273 0.508,0.4" /></g><g
           transform="translate(223.7817,298.7758)"
           id="g60"><path
             id="path62"
             style="fill:#ffffff;fill-opacity:1;fill-rule:nonzero;stroke:none"
             d="m 0,0 c -0.145,-0.69 -0.236,-1.417 -0.272,-2.144 0,0.019 0,0.037 -0.019,0.055 0,0.055 0,0.091 0.019,0.146 0,0.254 0.036,0.489 0.054,0.725 0.018,0.164 0.037,0.327 0.073,0.491 0.036,0.254 0.073,0.491 0.127,0.727 z" /></g><g
           transform="translate(224,299.7016)"
           id="g64"><path
             id="path66"
             style="fill:#ffffff;fill-opacity:1;fill-rule:nonzero;stroke:none"
             d="m 0,0 c -0.091,-0.309 -0.164,-0.617 -0.218,-0.926 h -0.018 c 0,0.018 0,0.035 0.018,0.054 C -0.164,-0.581 -0.091,-0.291 0,0" /></g><g
           transform="translate(225.0532,302.4799)"
           id="g68"><path
             id="path70"
             style="fill:#ffffff;fill-opacity:1;fill-rule:nonzero;stroke:none"
             d="m 0,0 c -0.018,-0.055 -0.037,-0.091 -0.055,-0.127 v 0.036 C -0.037,-0.055 -0.018,-0.036 0,0" /></g><g
           transform="translate(228.4311,306.8022)"
           id="g72"><path
             id="path74"
             style="fill:#ffffff;fill-opacity:1;fill-rule:nonzero;stroke:none"
             d="m 0,0 c -0.236,-0.218 -0.472,-0.436 -0.69,-0.654 0.09,0.128 0.218,0.254 0.363,0.363 C -0.218,-0.2 -0.109,-0.091 0,0" /></g><g
           transform="translate(229.1572,307.4018)"
           id="g76"><path
             id="path78"
             style="fill:#ffffff;fill-opacity:1;fill-rule:nonzero;stroke:none"
             d="m 0,0 c -0.254,-0.2 -0.49,-0.4 -0.726,-0.6 0.073,0.073 0.145,0.127 0.218,0.2 0.163,0.145 0.327,0.273 0.508,0.4" /></g><g
           transform="translate(223.7817,298.8295)"
           id="g80"><path
             id="path82"
             style="fill:#ffffff;fill-opacity:1;fill-rule:nonzero;stroke:none"
             d="M 0,0 C -0.018,-0.019 -0.018,-0.036 -0.018,-0.054 -0.072,-0.29 -0.109,-0.526 -0.145,-0.78 -0.181,-0.944 -0.2,-1.107 -0.218,-1.271 -0.236,-1.508 -0.272,-1.743 -0.272,-1.997 -0.291,-2.052 -0.291,-2.088 -0.291,-2.143 v -0.073 l 0.019,0.019 C -0.236,-1.471 -0.145,-0.744 0,-0.054 0.055,0.255 0.127,0.563 0.218,0.872 0.127,0.581 0.055,0.291 0,0 M 4.867,8.172 C 4.794,8.1 4.722,8.045 4.649,7.973 4.885,8.172 5.122,8.372 5.375,8.572 5.194,8.445 5.031,8.317 4.867,8.172 M 4.322,7.682 C 4.177,7.572 4.05,7.446 3.959,7.318 4.177,7.537 4.413,7.755 4.649,7.973 4.54,7.882 4.431,7.772 4.322,7.682 M 1.217,3.56 C 1.09,3.306 0.981,3.052 0.872,2.778 0.981,3.032 1.09,3.287 1.217,3.523 1.235,3.56 1.253,3.596 1.271,3.65 1.253,3.614 1.235,3.596 1.217,3.56 M 0.872,2.778 C 0.981,3.032 1.09,3.287 1.217,3.523 V 3.56 C 1.09,3.306 0.981,3.052 0.872,2.778" /></g><g
           transform="translate(319.541,193.3911)"
           id="g84"><path
             id="path86"
             style="fill:#ffffff;fill-opacity:1;fill-rule:nonzero;stroke:none"
             d="m 0,0 -67.011,-38.699 v 29.437 c 0.018,0.273 0.018,0.545 0.018,0.818 V 94.125 L 0,132.824 Z m -88.241,115.391 c -0.054,-0.018 -0.127,-0.055 -0.181,-0.091 l -0.255,-0.146 c -0.218,-0.127 -0.417,-0.235 -0.617,-0.381 -0.109,-0.073 -0.218,-0.127 -0.309,-0.2 -0.036,-0.018 -0.09,-0.054 -0.127,-0.091 -0.2,-0.127 -0.381,-0.253 -0.563,-0.399 -0.036,-0.019 -0.072,-0.036 -0.091,-0.072 -0.254,-0.2 -0.49,-0.401 -0.726,-0.6 -0.236,-0.218 -0.472,-0.435 -0.69,-0.654 -0.018,-0.018 -0.036,-0.036 -0.055,-0.054 -0.145,-0.127 -0.29,-0.272 -0.417,-0.436 -0.055,-0.037 -0.091,-0.073 -0.127,-0.127 -0.037,-0.036 -0.055,-0.054 -0.055,-0.073 -0.09,-0.09 -0.163,-0.181 -0.236,-0.272 -0.109,-0.127 -0.218,-0.273 -0.327,-0.399 -0.036,-0.055 -0.072,-0.091 -0.109,-0.146 -0.127,-0.182 -0.254,-0.345 -0.381,-0.526 -0.018,0 -0.018,-0.019 -0.018,-0.036 l -0.055,-0.055 c 0,-0.019 -0.018,-0.019 -0.018,-0.036 v -0.019 c -0.072,-0.091 -0.127,-0.182 -0.2,-0.291 -0.091,-0.108 -0.163,-0.235 -0.218,-0.345 -0.018,-0.054 -0.054,-0.109 -0.09,-0.163 -0.146,-0.236 -0.255,-0.454 -0.382,-0.69 -0.018,-0.055 -0.036,-0.091 -0.054,-0.127 -0.127,-0.236 -0.236,-0.491 -0.345,-0.745 -0.037,-0.091 -0.073,-0.163 -0.109,-0.272 -0.055,-0.128 -0.109,-0.255 -0.146,-0.382 -0.054,-0.109 -0.09,-0.217 -0.127,-0.327 v -0.018 c -0.09,-0.29 -0.181,-0.58 -0.272,-0.871 v -0.036 c -0.091,-0.309 -0.164,-0.618 -0.218,-0.926 -0.145,-0.691 -0.236,-1.417 -0.272,-2.144 l -0.019,-0.018 c -0.018,-0.236 -0.018,-0.472 -0.018,-0.726 V 16.744 L -122.31,31.89 c -2.251,1.307 -4.757,1.961 -7.263,1.961 -2.507,0 -5.031,-0.654 -7.264,-1.944 l -26.242,-15.145 v 85.753 c 0,4.848 -2.47,9.407 -6.502,12.113 -0.308,0.199 -0.635,0.399 -0.962,0.581 l -74.112,42.785 73.858,42.677 c 0.145,0.072 0.309,0.163 0.454,0.255 l 40.77,23.499 40.769,-23.536 c 0.037,-0.018 0.073,-0.055 0.127,-0.073 l 74.149,-42.822 z m -103.895,-154.126 -67.047,38.717 v 132.861 l 67.047,-38.718 z M 21.792,170.58 -74.257,226.041 c -0.036,0.018 -0.073,0.036 -0.109,0.054 l -47.944,27.676 c -4.485,2.597 -10.024,2.597 -14.509,0 l -47.598,-27.421 c -0.146,-0.091 -0.309,-0.163 -0.455,-0.255 l -96.104,-55.515 c -4.503,-2.598 -7.264,-7.392 -7.264,-12.586 V -8.39 c 0,-5.194 2.761,-9.988 7.264,-12.585 l 96.104,-55.516 c 2.252,-1.307 4.759,-1.943 7.265,-1.943 2.506,0 5.012,0.636 7.264,1.943 4.486,2.597 7.264,7.391 7.264,12.585 v 47.108 l 33.506,19.341 33.505,-19.359 v -47.053 c 0,-5.194 2.761,-9.988 7.264,-12.585 2.252,-1.29 4.758,-1.943 7.264,-1.943 2.507,0 5.013,0.653 7.265,1.96 l 96.067,55.462 c 4.486,2.597 7.265,7.391 7.265,12.585 v 166.384 c 0,5.194 -2.779,9.988 -7.265,12.586" /></g><g
           transform="translate(62.1835,64.9252)"
           id="g88"><path
             id="path90"
             style="fill:#ffffff;fill-opacity:1;fill-rule:nonzero;stroke:none"
             d="m 0,0 v -63.829 h -13.489 v 26.212 h -35.205 v -26.212 h -13.49 V 0 h 13.49 v -25.225 h 35.205 V 0 Z" /></g><g
           transform="translate(85.2158,33.0112)"
           id="g92"><path
             id="path94"
             style="fill:#ffffff;fill-opacity:1;fill-rule:nonzero;stroke:none"
             d="m 0,0 c 0,-2.853 0.511,-5.539 1.535,-8.062 1.023,-2.522 2.468,-4.715 4.332,-6.58 1.865,-1.864 4.094,-3.327 6.69,-4.386 2.594,-1.061 5.465,-1.591 8.61,-1.591 3.142,0 6.031,0.53 8.664,1.591 2.631,1.059 4.897,2.522 6.799,4.386 1.9,1.865 3.362,4.058 4.387,6.58 1.023,2.523 1.535,5.209 1.535,8.062 0,2.852 -0.512,5.52 -1.535,8.006 -1.025,2.484 -2.487,4.661 -4.387,6.525 -1.902,1.865 -4.168,3.345 -6.799,4.442 -2.633,1.096 -5.522,1.645 -8.664,1.645 -3.145,0 -6.016,-0.549 -8.61,-1.645 C 9.961,17.876 7.732,16.396 5.867,14.531 4.003,12.667 2.558,10.49 1.535,8.006 0.511,5.52 0,2.852 0,0 m -13.709,0 c 0,4.458 0.839,8.681 2.522,12.667 1.682,3.983 4.059,7.475 7.129,10.474 3.071,2.996 6.745,5.39 11.022,7.182 4.278,1.791 9.01,2.688 14.203,2.688 5.19,0 9.941,-0.897 14.257,-2.688 C 39.737,28.531 43.43,26.137 46.5,23.141 49.571,20.142 51.965,16.65 53.684,12.667 55.401,8.681 56.261,4.458 56.261,0 c 0,-4.461 -0.86,-8.684 -2.577,-12.667 -1.719,-3.986 -4.113,-7.496 -7.184,-10.529 -3.07,-3.034 -6.763,-5.429 -11.076,-7.183 -4.316,-1.755 -9.067,-2.632 -14.257,-2.632 -5.193,0 -9.925,0.877 -14.203,2.632 -4.277,1.754 -7.951,4.149 -11.022,7.183 -3.07,3.033 -5.447,6.543 -7.129,10.529 -1.683,3.983 -2.522,8.206 -2.522,12.667" /></g><g
           transform="translate(212.9814,64.9252)"
           id="g96"><path
             id="path98"
             style="fill:#ffffff;fill-opacity:1;fill-rule:nonzero;stroke:none"
             d="m 0,0 v -35.644 c 0,-5.044 -0.731,-9.415 -2.193,-13.105 -1.464,-3.693 -3.547,-6.728 -6.251,-9.103 -2.706,-2.377 -5.977,-4.15 -9.816,-5.318 -3.839,-1.17 -8.098,-1.755 -12.777,-1.755 -4.754,0 -9.03,0.585 -12.831,1.755 -3.802,1.168 -7.073,2.941 -9.816,5.318 -2.741,2.375 -4.844,5.41 -6.306,9.103 -1.463,3.69 -2.193,8.061 -2.193,13.105 V 0 h 13.49 v -35.205 c 0,-3.218 0.401,-5.922 1.206,-8.115 0.804,-2.194 1.974,-3.987 3.51,-5.374 1.535,-1.39 3.399,-2.376 5.592,-2.961 2.194,-0.586 4.643,-0.878 7.348,-0.878 2.705,0 5.136,0.292 7.293,0.878 2.156,0.585 4.004,1.571 5.538,2.961 1.537,1.387 2.705,3.18 3.51,5.374 0.804,2.193 1.207,4.897 1.207,8.115 l 0,35.205 z" /></g><g
           transform="translate(224.7153,45.4037)"
           id="g100"><path
             id="path102"
             style="fill:#ffffff;fill-opacity:1;fill-rule:nonzero;stroke:none"
             d="m 0,0 c 0,3.51 0.839,6.562 2.522,9.157 1.682,2.595 3.874,4.752 6.581,6.471 2.704,1.717 5.738,2.978 9.103,3.783 3.361,0.805 6.725,1.207 10.089,1.207 5.045,0 9.907,-0.658 14.586,-1.974 4.678,-1.316 9.065,-3.51 13.161,-6.58 L 48.475,2.083 C 45.695,4.277 42.662,5.849 39.372,6.8 36.082,7.749 32.463,8.226 28.514,8.226 26.467,8.226 24.547,8.061 22.756,7.731 20.964,7.402 19.393,6.909 18.041,6.251 16.687,5.593 15.628,4.752 14.86,3.729 14.093,2.704 13.708,1.498 13.708,0.109 c 0,-2.193 0.896,-3.673 2.688,-4.441 1.791,-0.768 3.965,-1.151 6.525,-1.151 h 12.503 c 3.362,0 6.452,-0.329 9.266,-0.988 2.815,-0.658 5.246,-1.718 7.294,-3.18 2.046,-1.463 3.656,-3.364 4.826,-5.703 1.169,-2.341 1.754,-5.155 1.754,-8.445 0,-3.656 -0.786,-6.837 -2.358,-9.541 -1.573,-2.706 -3.711,-4.954 -6.415,-6.745 -2.706,-1.792 -5.868,-3.125 -9.487,-4.003 -3.619,-0.877 -7.476,-1.315 -11.57,-1.315 -5.557,0 -11.206,0.895 -16.945,2.686 -5.74,1.79 -11.021,4.88 -15.847,9.268 l 8.883,9.87 c 3.436,-3.29 7.13,-5.687 11.077,-7.184 3.949,-1.499 7.896,-2.249 11.845,-2.249 2.338,0 4.551,0.182 6.635,0.549 2.084,0.365 3.893,0.932 5.428,1.7 1.536,0.768 2.76,1.737 3.674,2.907 0.914,1.169 1.372,2.593 1.372,4.277 0,2.339 -0.952,3.838 -2.852,4.496 -1.902,0.658 -4.424,0.987 -7.567,0.987 h -9.98 c -2.999,0 -5.941,0.22 -8.829,0.659 -2.889,0.438 -5.503,1.296 -7.842,2.577 -2.34,1.278 -4.222,3.106 -5.648,5.483 C 0.713,-7.002 0,-3.876 0,0" /></g><path
           id="path104"
           style="fill:#ffffff;fill-opacity:1;fill-rule:nonzero;stroke:none"
           d="m 306.638,1.096 h -13.49 v 63.829 h 13.49 z" /><g
           transform="translate(365.9707,1.0961)"
           id="g106"><path
             id="path108"
             style="fill:#ffffff;fill-opacity:1;fill-rule:nonzero;stroke:none"
             d="m 0,0 c -0.512,3.51 -1.225,6.598 -2.139,9.268 -0.915,2.668 -2.102,5.045 -3.565,7.128 -1.463,2.084 -3.198,3.893 -5.209,5.429 -2.011,1.535 -4.369,2.887 -7.073,4.058 -4.899,-2.341 -8.867,-5.576 -11.9,-9.706 C -32.92,12.046 -34.949,6.653 -35.972,0 H -50.01 c 0.658,4.239 1.59,8.006 2.796,11.296 1.207,3.291 2.613,6.214 4.223,8.774 1.607,2.559 3.416,4.807 5.428,6.744 2.01,1.938 4.149,3.675 6.417,5.21 -2.414,1.461 -4.625,3.125 -6.636,4.991 -2.011,1.864 -3.766,4.057 -5.264,6.58 -1.499,2.522 -2.725,5.428 -3.674,8.718 -0.95,3.291 -1.645,7.128 -2.083,11.516 h 13.598 c 0.292,-3.583 0.878,-6.709 1.755,-9.377 0.878,-2.67 2.029,-5.028 3.455,-7.074 1.426,-2.048 3.126,-3.783 5.099,-5.209 1.975,-1.426 4.278,-2.687 6.91,-3.784 2.632,1.097 4.935,2.358 6.909,3.784 1.974,1.426 3.655,3.126 5.045,5.1 1.388,1.973 2.503,4.313 3.345,7.019 0.839,2.703 1.443,5.884 1.81,9.541 H 12.832 C 12.393,59.514 11.68,55.73 10.693,52.478 9.706,49.224 8.462,46.354 6.964,43.868 5.464,41.383 3.729,39.208 1.755,37.343 -0.22,35.479 -2.377,33.741 -4.716,32.134 c 2.412,-1.535 4.623,-3.29 6.635,-5.264 2.01,-1.974 3.801,-4.241 5.374,-6.8 1.571,-2.56 2.923,-5.483 4.058,-8.774 C 12.483,8.006 13.342,4.239 13.928,0 Z" /></g></g></g></g></svg>