<?xml version="1.0" encoding="UTF-8" standalone="no"?>
<svg
   xmlns:dc="http://purl.org/dc/elements/1.1/"
   xmlns:cc="http://creativecommons.org/ns#"
   xmlns:rdf="http://www.w3.org/1999/02/22-rdf-syntax-ns#"
   xmlns:svg="http://www.w3.org/2000/svg"
   xmlns="http://www.w3.org/2000/svg"
   viewBox="0 0 1883.4 533.44269"
   height="533.44269"
   width="1883.4"
   xml:space="preserve"
   id="svg2"
   version="1.1"><metadata
     id="metadata8"><rdf:RDF><cc:Work
         rdf:about=""><dc:format>image/svg+xml</dc:format><dc:type
           rdf:resource="http://purl.org/dc/dcmitype/StillImage" /></cc:Work></rdf:RDF></metadata><defs
     id="defs6"><clipPath
       id="clipPath22"
       clipPathUnits="userSpaceOnUse"><path
         id="path20"
         d="M 0,400.082 H 1412.551 V 0 H 0 Z" /></clipPath></defs><g
     transform="matrix(1.3333333,0,0,-1.3333333,0,533.44267)"
     id="g10"><g
       transform="translate(595.7029,265.6902)"
       id="g12"><path
         id="path14"
         style="fill:#ffffff;fill-opacity:1;fill-rule:nonzero;stroke:none"
         d="m 0,0 v -164.104 h -34.682 v 67.39 h -90.511 v -67.39 h -34.682 V 0 h 34.682 v -64.851 h 90.511 V 0 Z" /></g><g
       id="g16"><g
         clip-path="url(#clipPath22)"
         id="g18"><g
           transform="translate(654.9187,183.6394)"
           id="g24"><path
             id="path26"
             style="fill:#ffffff;fill-opacity:1;fill-rule:nonzero;stroke:none"
             d="m 0,0 c 0,-7.333 1.312,-14.241 3.947,-20.726 2.63,-6.485 6.345,-12.125 11.137,-16.917 4.794,-4.794 10.525,-8.556 17.199,-11.279 6.671,-2.727 14.052,-4.089 22.136,-4.089 8.079,0 15.507,1.362 22.275,4.089 6.767,2.723 12.592,6.485 17.482,11.279 4.886,4.792 8.643,10.432 11.277,16.917 2.632,6.485 3.949,13.393 3.949,20.726 0,7.331 -1.317,14.189 -3.949,20.583 -2.634,6.388 -6.391,11.983 -11.277,16.777 -4.89,4.792 -10.715,8.599 -17.482,11.42 -6.768,2.819 -14.196,4.229 -22.275,4.229 -8.084,0 -15.465,-1.41 -22.136,-4.229 C 25.609,45.959 19.878,42.152 15.084,37.36 10.292,32.566 6.577,26.971 3.947,20.583 1.312,14.189 0,7.331 0,0 m -35.247,0 c 0,11.462 2.159,22.319 6.485,32.566 4.323,10.243 10.434,19.218 18.328,26.928 7.895,7.705 17.342,13.86 28.339,18.468 10.996,4.605 23.164,6.908 36.514,6.908 13.345,0 25.561,-2.303 36.655,-6.908 11.089,-4.608 20.584,-10.763 28.477,-18.468 7.896,-7.71 14.052,-16.685 18.47,-26.928 4.415,-10.247 6.625,-21.104 6.625,-32.566 0,-11.468 -2.21,-22.325 -6.625,-32.568 -4.418,-10.247 -10.574,-19.27 -18.47,-27.069 -7.893,-7.801 -17.388,-13.958 -28.477,-18.467 -11.094,-4.512 -23.31,-6.768 -36.655,-6.768 -13.35,0 -25.518,2.256 -36.514,6.768 -10.997,4.509 -20.444,10.666 -28.339,18.467 -7.894,7.799 -14.005,16.822 -18.328,27.069 -4.326,10.243 -6.485,21.1 -6.485,32.568" /></g><g
           transform="translate(983.405,265.6902)"
           id="g28"><path
             id="path30"
             style="fill:#ffffff;fill-opacity:1;fill-rule:nonzero;stroke:none"
             d="m 0,0 v -91.639 c 0,-12.97 -1.88,-24.205 -5.64,-33.694 -3.761,-9.495 -9.119,-17.297 -16.071,-23.402 -6.957,-6.112 -15.367,-10.672 -25.236,-13.676 -9.868,-3.006 -20.821,-4.512 -32.848,-4.512 -12.223,0 -23.219,1.506 -32.991,4.512 -9.775,3.004 -18.185,7.564 -25.235,13.676 -7.048,6.105 -12.454,13.907 -16.214,23.402 -3.762,9.489 -5.638,20.724 -5.638,33.694 V 0 h 34.682 v -90.511 c 0,-8.274 1.03,-15.227 3.101,-20.864 2.067,-5.64 5.075,-10.249 9.024,-13.818 3.946,-3.573 8.739,-6.109 14.378,-7.613 5.64,-1.506 11.937,-2.256 18.893,-2.256 6.953,0 13.204,0.75 18.75,2.256 5.543,1.504 10.292,4.04 14.239,7.613 3.949,3.569 6.952,8.178 9.023,13.818 2.067,5.637 3.101,12.59 3.101,20.864 l 0,90.511 z" /></g><g
           transform="translate(1013.573,215.5003)"
           id="g32"><path
             id="path34"
             style="fill:#ffffff;fill-opacity:1;fill-rule:nonzero;stroke:none"
             d="m 0,0 c 0,9.023 2.158,16.87 6.485,23.544 4.323,6.67 9.961,12.217 16.917,16.637 6.953,4.414 14.755,7.656 23.405,9.727 8.643,2.067 17.291,3.101 25.94,3.101 12.97,0 25.469,-1.691 37.501,-5.075 12.027,-3.384 23.306,-9.023 33.835,-16.917 L 124.628,5.357 c -7.146,5.64 -14.943,9.68 -23.402,12.125 -8.46,2.441 -17.765,3.666 -27.916,3.666 -5.264,0 -10.198,-0.422 -14.804,-1.27 C 53.899,19.033 49.859,17.765 46.384,16.071 42.902,14.38 40.179,12.218 38.206,9.586 36.232,6.953 35.245,3.851 35.245,0.282 c 0,-5.639 2.3,-9.446 6.909,-11.419 4.604,-1.974 10.195,-2.961 16.777,-2.961 h 32.144 c 8.643,0 16.588,-0.846 23.824,-2.537 7.236,-1.693 13.487,-4.42 18.753,-8.178 5.26,-3.762 9.397,-8.647 12.405,-14.661 3.006,-6.02 4.512,-13.253 4.512,-21.711 0,-9.402 -2.022,-17.58 -6.063,-24.532 -4.044,-6.957 -9.541,-12.737 -16.494,-17.34 -6.957,-4.61 -15.086,-8.036 -24.39,-10.292 -9.306,-2.256 -19.222,-3.384 -29.747,-3.384 -14.287,0 -28.81,2.305 -43.565,6.908 -14.759,4.603 -28.336,12.548 -40.744,23.827 l 22.839,25.375 c 8.835,-8.458 18.33,-14.618 28.479,-18.467 10.152,-3.855 20.301,-5.782 30.452,-5.782 6.014,0 11.703,0.467 17.06,1.411 5.357,0.939 10.009,2.396 13.956,4.371 3.949,1.973 7.095,4.463 9.446,7.471 2.349,3.006 3.526,6.67 3.526,10.996 0,6.014 -2.447,9.87 -7.332,11.56 -4.89,1.693 -11.375,2.539 -19.456,2.539 H 62.878 c -7.711,0 -15.275,0.565 -22.699,1.693 -7.428,1.128 -14.147,3.335 -20.16,6.625 C 14,-34.919 9.164,-30.219 5.498,-24.107 1.833,-18 0,-9.965 0,0" /></g><path
           id="path36"
           style="fill:#ffffff;fill-opacity:1;fill-rule:nonzero;stroke:none"
           d="m 1224.197,101.586 h -34.682 V 265.69 h 34.682 z" /><g
           transform="translate(1376.7415,101.5862)"
           id="g38"><path
             id="path40"
             style="fill:#ffffff;fill-opacity:1;fill-rule:nonzero;stroke:none"
             d="m 0,0 c -1.317,9.023 -3.15,16.962 -5.5,23.827 -2.351,6.859 -5.404,12.97 -9.164,18.328 -3.761,5.357 -8.224,10.009 -13.393,13.958 -5.172,3.947 -11.234,7.422 -18.185,10.431 C -58.838,60.527 -69.038,52.208 -76.836,41.59 -84.638,30.969 -89.855,17.104 -92.485,0 h -36.092 c 1.693,10.899 4.089,20.583 7.19,29.042 3.103,8.46 6.719,15.976 10.857,22.559 4.132,6.576 8.783,12.357 13.956,17.339 5.168,4.98 10.667,9.447 16.496,13.393 -6.205,3.758 -11.891,8.037 -17.059,12.831 -5.173,4.794 -9.684,10.432 -13.535,16.917 -3.854,6.485 -7.004,13.958 -9.445,22.417 -2.445,8.458 -4.229,18.327 -5.357,29.606 h 34.962 c 0.75,-9.212 2.256,-17.248 4.512,-24.107 2.256,-6.865 5.217,-12.928 8.883,-18.187 3.664,-5.266 8.036,-9.729 13.111,-13.393 5.074,-3.667 10.997,-6.908 17.764,-9.729 6.766,2.821 12.688,6.062 17.763,9.729 5.077,3.664 9.397,8.035 12.97,13.11 3.569,5.075 6.437,11.09 8.601,18.047 2.158,6.95 3.709,15.129 4.652,24.53 H 32.991 C 31.863,153.01 30.029,143.283 27.491,134.92 24.953,126.555 21.756,119.176 17.905,112.786 14.049,106.395 9.586,100.803 4.512,96.009 -0.565,91.217 -6.111,86.748 -12.125,82.616 -5.922,78.669 -0.238,74.158 4.934,69.083 10.103,64.006 14.706,58.177 18.75,51.601 22.791,45.018 26.266,37.502 29.184,29.042 32.094,20.583 34.303,10.899 35.81,0 Z" /></g><g
           transform="translate(230.4573,220.0862)"
           id="g42"><path
             id="path44"
             style="fill:#ffffff;fill-opacity:1;fill-rule:nonzero;stroke:none"
             d="m 0,0 c -0.174,-0.827 -0.283,-1.697 -0.326,-2.566 0,0.022 0,0.043 -0.022,0.065 0,0.065 0,0.109 0.022,0.174 0,0.305 0.043,0.587 0.065,0.869 0.022,0.197 0.043,0.392 0.087,0.588 0.043,0.304 0.087,0.587 0.152,0.87 z" /></g><g
           transform="translate(230.718,221.1946)"
           id="g46"><path
             id="path48"
             style="fill:#ffffff;fill-opacity:1;fill-rule:nonzero;stroke:none"
             d="m 0,0 c -0.109,-0.37 -0.196,-0.739 -0.261,-1.108 h -0.022 c 0,0.021 0,0.043 0.022,0.064 C -0.196,-0.696 -0.109,-0.348 0,0" /></g><g
           transform="translate(231.9793,224.5213)"
           id="g50"><path
             id="path52"
             style="fill:#ffffff;fill-opacity:1;fill-rule:nonzero;stroke:none"
             d="m 0,0 c -0.022,-0.065 -0.043,-0.109 -0.065,-0.152 v 0.043 C -0.043,-0.065 -0.022,-0.043 0,0" /></g><g
           transform="translate(236.0232,229.6966)"
           id="g54"><path
             id="path56"
             style="fill:#ffffff;fill-opacity:1;fill-rule:nonzero;stroke:none"
             d="m 0,0 c -0.283,-0.261 -0.565,-0.522 -0.826,-0.783 0.109,0.152 0.261,0.304 0.435,0.434 C -0.261,-0.24 -0.13,-0.109 0,0" /></g><g
           transform="translate(236.8933,230.4143)"
           id="g58"><path
             id="path60"
             style="fill:#ffffff;fill-opacity:1;fill-rule:nonzero;stroke:none"
             d="m 0,0 c -0.305,-0.24 -0.587,-0.479 -0.87,-0.718 0.087,0.087 0.174,0.152 0.261,0.239 C -0.413,-0.305 -0.218,-0.153 0,0" /></g><g
           transform="translate(230.4573,220.0862)"
           id="g62"><path
             id="path64"
             style="fill:#ffffff;fill-opacity:1;fill-rule:nonzero;stroke:none"
             d="m 0,0 c -0.174,-0.827 -0.283,-1.697 -0.326,-2.566 0,0.022 0,0.043 -0.022,0.065 0,0.065 0,0.109 0.022,0.174 0,0.305 0.043,0.587 0.065,0.869 0.022,0.197 0.043,0.392 0.087,0.588 0.043,0.304 0.087,0.587 0.152,0.87 z" /></g><g
           transform="translate(230.718,221.1946)"
           id="g66"><path
             id="path68"
             style="fill:#ffffff;fill-opacity:1;fill-rule:nonzero;stroke:none"
             d="m 0,0 c -0.109,-0.37 -0.196,-0.739 -0.261,-1.108 h -0.022 c 0,0.021 0,0.043 0.022,0.064 C -0.196,-0.696 -0.109,-0.348 0,0" /></g><g
           transform="translate(231.9793,224.5213)"
           id="g70"><path
             id="path72"
             style="fill:#ffffff;fill-opacity:1;fill-rule:nonzero;stroke:none"
             d="m 0,0 c -0.022,-0.065 -0.043,-0.109 -0.065,-0.152 v 0.043 C -0.043,-0.065 -0.022,-0.043 0,0" /></g><g
           transform="translate(236.0232,229.6966)"
           id="g74"><path
             id="path76"
             style="fill:#ffffff;fill-opacity:1;fill-rule:nonzero;stroke:none"
             d="m 0,0 c -0.283,-0.261 -0.565,-0.522 -0.826,-0.783 0.109,0.152 0.261,0.304 0.435,0.434 C -0.261,-0.24 -0.13,-0.109 0,0" /></g><g
           transform="translate(236.8933,230.4143)"
           id="g78"><path
             id="path80"
             style="fill:#ffffff;fill-opacity:1;fill-rule:nonzero;stroke:none"
             d="m 0,0 c -0.305,-0.24 -0.587,-0.479 -0.87,-0.718 0.087,0.087 0.174,0.152 0.261,0.239 C -0.413,-0.305 -0.218,-0.153 0,0" /></g><g
           transform="translate(230.4573,220.0862)"
           id="g82"><path
             id="path84"
             style="fill:#ffffff;fill-opacity:1;fill-rule:nonzero;stroke:none"
             d="m 0,0 c -0.174,-0.827 -0.283,-1.697 -0.326,-2.566 0,0.022 0,0.043 -0.022,0.065 0,0.065 0,0.109 0.022,0.174 0,0.305 0.043,0.587 0.065,0.869 0.022,0.197 0.043,0.392 0.087,0.588 0.043,0.304 0.087,0.587 0.152,0.87 z" /></g><g
           transform="translate(230.718,221.1946)"
           id="g86"><path
             id="path88"
             style="fill:#ffffff;fill-opacity:1;fill-rule:nonzero;stroke:none"
             d="m 0,0 c -0.109,-0.37 -0.196,-0.739 -0.261,-1.108 h -0.022 c 0,0.021 0,0.043 0.022,0.064 C -0.196,-0.696 -0.109,-0.348 0,0" /></g><g
           transform="translate(231.9793,224.5213)"
           id="g90"><path
             id="path92"
             style="fill:#ffffff;fill-opacity:1;fill-rule:nonzero;stroke:none"
             d="m 0,0 c -0.022,-0.065 -0.043,-0.109 -0.065,-0.152 v 0.043 C -0.043,-0.065 -0.022,-0.043 0,0" /></g><g
           transform="translate(236.0232,229.6966)"
           id="g94"><path
             id="path96"
             style="fill:#ffffff;fill-opacity:1;fill-rule:nonzero;stroke:none"
             d="m 0,0 c -0.283,-0.261 -0.565,-0.522 -0.826,-0.783 0.109,0.152 0.261,0.304 0.435,0.434 C -0.261,-0.24 -0.13,-0.109 0,0" /></g><g
           transform="translate(236.8933,230.4143)"
           id="g98"><path
             id="path100"
             style="fill:#ffffff;fill-opacity:1;fill-rule:nonzero;stroke:none"
             d="m 0,0 c -0.305,-0.24 -0.587,-0.479 -0.87,-0.718 0.087,0.087 0.174,0.152 0.261,0.239 C -0.413,-0.305 -0.218,-0.153 0,0" /></g><g
           transform="translate(230.4573,220.1507)"
           id="g102"><path
             id="path104"
             style="fill:#ffffff;fill-opacity:1;fill-rule:nonzero;stroke:none"
             d="M 0,0 C -0.022,-0.021 -0.022,-0.043 -0.022,-0.064 -0.087,-0.348 -0.131,-0.63 -0.174,-0.935 -0.218,-1.13 -0.239,-1.326 -0.261,-1.522 -0.283,-1.805 -0.326,-2.087 -0.326,-2.391 -0.348,-2.457 -0.348,-2.5 -0.348,-2.565 v -0.087 l 0.022,0.021 c 0.043,0.87 0.152,1.74 0.326,2.567 C 0.065,0.305 0.152,0.674 0.261,1.044 0.152,0.696 0.065,0.348 0,0 M 5.827,9.785 C 5.74,9.698 5.653,9.633 5.566,9.546 5.849,9.785 6.131,10.024 6.436,10.264 6.218,10.111 6.023,9.958 5.827,9.785 M 5.175,9.197 C 5.001,9.067 4.849,8.915 4.74,8.763 5.001,9.024 5.283,9.285 5.566,9.546 5.436,9.437 5.305,9.306 5.175,9.197 M 1.457,4.262 C 1.305,3.958 1.174,3.653 1.043,3.327 1.174,3.631 1.305,3.936 1.457,4.218 1.479,4.262 1.5,4.305 1.522,4.371 1.5,4.327 1.479,4.305 1.457,4.262 M 1.043,3.327 C 1.174,3.631 1.305,3.936 1.457,4.218 V 4.262 C 1.305,3.958 1.174,3.653 1.043,3.327" /></g><g
           transform="translate(345.1096,93.909)"
           id="g106"><path
             id="path108"
             style="fill:#ffffff;fill-opacity:1;fill-rule:nonzero;stroke:none"
             d="m 0,0 -80.233,-46.334 v 35.246 c 0.022,0.325 0.022,0.652 0.022,0.978 V 112.696 L 0,159.031 Z m -105.651,138.157 c -0.065,-0.021 -0.152,-0.065 -0.217,-0.108 l -0.305,-0.174 c -0.261,-0.153 -0.5,-0.283 -0.739,-0.457 -0.13,-0.087 -0.261,-0.152 -0.37,-0.239 -0.043,-0.022 -0.108,-0.066 -0.152,-0.109 -0.239,-0.152 -0.456,-0.304 -0.674,-0.478 -0.043,-0.022 -0.087,-0.044 -0.108,-0.087 -0.305,-0.239 -0.588,-0.479 -0.87,-0.717 -0.283,-0.262 -0.565,-0.522 -0.827,-0.784 -0.021,-0.021 -0.043,-0.043 -0.065,-0.065 -0.174,-0.152 -0.348,-0.326 -0.5,-0.522 -0.065,-0.043 -0.108,-0.086 -0.152,-0.152 -0.043,-0.043 -0.065,-0.065 -0.065,-0.087 -0.109,-0.108 -0.196,-0.217 -0.283,-0.326 -0.13,-0.152 -0.261,-0.326 -0.391,-0.478 -0.044,-0.065 -0.087,-0.109 -0.131,-0.174 -0.152,-0.218 -0.304,-0.413 -0.457,-0.631 -0.021,0 -0.021,-0.021 -0.021,-0.043 l -0.065,-0.066 c 0,-0.021 -0.022,-0.021 -0.022,-0.043 v -0.021 c -0.087,-0.109 -0.152,-0.218 -0.239,-0.349 -0.109,-0.13 -0.196,-0.282 -0.261,-0.413 -0.022,-0.065 -0.065,-0.131 -0.109,-0.195 -0.174,-0.283 -0.305,-0.544 -0.456,-0.827 -0.022,-0.065 -0.044,-0.109 -0.066,-0.152 -0.152,-0.282 -0.283,-0.587 -0.413,-0.891 -0.043,-0.109 -0.087,-0.196 -0.13,-0.326 -0.066,-0.153 -0.131,-0.305 -0.174,-0.457 -0.066,-0.13 -0.109,-0.261 -0.152,-0.391 v -0.022 c -0.109,-0.348 -0.218,-0.696 -0.327,-1.044 v -0.043 c -0.109,-0.37 -0.195,-0.74 -0.26,-1.109 -0.174,-0.826 -0.283,-1.697 -0.327,-2.566 l -0.022,-0.022 c -0.021,-0.282 -0.021,-0.565 -0.021,-0.869 V 20.048 l -31.419,18.134 c -2.696,1.566 -5.697,2.348 -8.698,2.348 -3,0 -6.022,-0.782 -8.697,-2.327 l -31.419,-18.134 v 102.673 c 0,5.805 -2.957,11.262 -7.784,14.502 -0.37,0.239 -0.761,0.478 -1.152,0.696 l -88.735,51.227 88.43,51.097 c 0.174,0.087 0.37,0.195 0.544,0.304 l 48.813,28.136 48.814,-28.179 c 0.044,-0.022 0.087,-0.066 0.152,-0.088 l 88.778,-51.27 z M -230.044,-46.378 -310.32,-0.021 v 159.074 l 80.276,-46.357 z m 256.136,250.613 -115,66.404 c -0.044,0.022 -0.088,0.044 -0.131,0.065 l -57.402,33.137 c -5.371,3.11 -12.002,3.11 -17.373,0 l -56.989,-32.832 c -0.174,-0.109 -0.37,-0.196 -0.544,-0.305 l -115.065,-66.469 c -5.393,-3.11 -8.698,-8.849 -8.698,-15.068 V -10.045 c 0,-6.219 3.305,-11.959 8.698,-15.068 l 115.065,-66.47 c 2.697,-1.565 5.697,-2.326 8.698,-2.326 3,0 6.001,0.761 8.697,2.326 5.37,3.11 8.697,8.851 8.697,15.069 v 56.402 l 40.116,23.156 40.117,-23.178 v -56.337 c 0,-6.218 3.305,-11.959 8.697,-15.068 2.696,-1.544 5.697,-2.326 8.698,-2.326 3,0 6.001,0.782 8.697,2.348 l 115.022,66.404 c 5.37,3.109 8.697,8.849 8.697,15.068 v 199.212 c 0,6.219 -3.327,11.958 -8.697,15.068" /></g></g></g></g></svg>